<?xml version="1.0" encoding="UTF-8"?>
<svg id="Layer_1" data-name="Layer 1" xmlns="http://www.w3.org/2000/svg" viewBox="0 0 549 549">
  <defs>
    <style>
      .cls-1 {
        fill: none;
        stroke: #fff;
        stroke-miterlimit: 10;
        stroke-width: 10px;
      }

      .cls-2 {
        fill: #1d1d1b;
      }

      .cls-2, .cls-3, .cls-4, .cls-5, .cls-6 {
        stroke-width: 0px;
      }

      .cls-3 {
        fill: #a9b1ed;
      }

      .cls-4 {
        fill: #90cfef;
      }

      .cls-5 {
        fill: #686868;
      }

      .cls-6 {
        fill: #fff;
      }
    </style>
  </defs>
  <path class="cls-6" d="m463.29,270.26c-1.77-15.78-5.41-31.28-10.8-46.09-9.37-25.73-21.62-46.86-37.48-64.59-12.01-13.43-25.71-25.01-40.71-34.39-14.72-9.21-31.08-16.56-48.62-21.84-25.83-7.77-53.15-9.67-83.51-5.8-22.92,2.92-44.72,10.13-64.81,21.42-16.42,9.23-29.73,20.02-40.68,33.01-.3.36-.61.72-.92,1.07-1.34,1.56-2.73,3.17-3.85,5l-.85,1.35c-.91.73-1.56,1.69-1.95,2.85-.01.01-.02.02-.04.03-.27.25-.57.53-.83.91-4.14,6.23-9.45,14.52-13.79,23.4-2.31,4.72-4.12,9.21-5.54,13.7l-.07.03-.13.59c-.45,1.47-.86,2.93-1.21,4.34-1.2,4.84-2.32,9.77-3.41,14.55-2.45,8.43-4.08,11.43-5.02,12.47-.97,1.07-2.16,2.44-3.53,4.07l-.11.09c-.23.2-.46.4-.69.61-7.11,6.31-11,14.86-12.23,26.89-.1.98.1,2.71,2.59,3.2,8.62,1.7,16.4,3.26,23.78,4.77,1.08.22,2.29.37,3.73-.05,8.95-2.59,18.58-3.19,29.44-1.86,8.92,1.1,14.77,5.37,17.87,13.07.35.86.74,1.71,1.12,2.52.46.99.89,1.92,1.26,2.89.64,1.7,1.78,2.95,3.6,3.94,6.69,3.65,11.75,7.13,15.92,10.96,1.6,1.47,3.22,1.24,4.6.83,3.38-1.02,7.1-1.44,11.36-1.3,4.58.15,9.31.97,14.05,2.44.99.31,3.04.94,4.68-1.03,4.4-5.32,10.35-8.25,16.12-10.63,5.29-2.18,11.07-3.92,18.17-5.49,10.08-2.22,25.31-4.97,53.82-6.47h.28c.3-.01.62,0,.96.02.81.04,1.73.08,2.65-.14l20.02-.6c13.48-.16,25.47.02,36.67.56,3.12.15,6.28.16,9.34.18,1.45,0,2.96.01,4.43.04h.27c.5,0,.96.01,1.39.08,1.25.18,2.17.7,2.6,1.45.51.9.26,1.97-.04,2.71-.4.99-1.07,1.93-1.77,2.92-.17.23-.33.47-.49.7-.99,1.44-2.09,2.86-3.16,4.23-1.68,2.16-3.41,4.39-4.84,6.84-2,2.07-3.68,4.39-5.3,6.64-.91,1.25-1.84,2.55-2.81,3.77-.31.39-.55.81-.7,1.26l-2.44,3.22c-.5.37-.81.83-1.06,1.21-.07.11-.14.22-.22.32-1.29,1.73-2.57,3.46-3.85,5.19-2.93,3.96-5.96,8.06-9.02,12.02-1.45,1.87-1.75,3.6-1,5.77,2.08,6.05,1.92,12.07-.47,17.9-5.3,12.9-14.59,20.97-27.62,23.99-9.76,2.26-20.5,2.96-33.79,2.2-3.02-.17-6.99-.37-11.02-.41-6.51-.05-11.63-.91-16.1-2.7l-.26-.1h-.28c-.15.02-.29.03-.44.05l-2.44-.96c-.77-.42-7.61-4.13-14.53-7.98-2.32-1.76-4.61-3.74-6.79-5.89-4.88-4.82-9.15-10.44-13.06-17.17-3.8-6.55-6.74-13.2-8.74-19.78-.86-2.84-2.41-4.8-4.74-6.02-5.14-2.68-10.11-2.64-14.79.1-1.57.92-3.76,2.48-4.71,5.4-.4,1.24-.92,2.43-1.47,3.69-.23.52-.46,1.06-.68,1.6-.89,1.48-1.75,3-2.58,4.46-1.57,2.78-3.19,5.65-5.06,8.27-5.44,7.62-11.28,13.31-17.83,17.38-7.07,4.39-14.02,6.64-21.25,6.88-1.07.03-2.06.21-3.03.53-4.87-.46-12.74-1.71-23.03-5.07-8.03-2.62-16.12-7.94-24.07-15.8-.24-.82-.71-1.58-1.44-2.29-4.01-3.94-7.96-8.51-12.44-14.4-.04-.06-.08-.11-.13-.17-.47-.63-1.17-1.58-2.63-1.68l-.69-.05-.42.54c-1.03,1.32-1.19,2.82-1.33,4.14-.06.55-.11,1.07-.22,1.55-1.25,5.31-3.06,10.58-4.81,15.67-.48,1.4-.98,2.85-1.46,4.29-1.7,5.05-3.36,10.52-4.05,16.21-1.17,9.74,2.11,17.56,9.75,23.24,3.27,2.43,6.96,4.34,11.28,5.84,4.92,1.71,10.03,2.78,15.26,3.81.84.16,1.68.33,2.51.49,5.02.96,10.2,1.96,15.06,3.73,4.18,1.52,8.85,3.7,11.8,8.31.15.23.33.4.52.52l1.14,4.55c-1.64,4.17-2.96,8.43-3.94,12.66-2.68,11.58-3.43,21.1-2.36,29.96,1.07,8.87,5.43,15.69,12.96,20.28,2.46,1.5,5.08,2.68,7.79,3.51,4.22,1.29,8.67,2.26,13.59,2.98.09.01.17.03.26.05.42.08.97.18,1.59.04l12.65.57c.95,1.12,2.29,1.18,2.91,1.21,2.92.13,5.85.27,8.77.41,3.42.16,6.96.33,10.44.48.07,0,.15.01.23.02.29.03.67.07,1.08,0,2.32.02,6.76.05,11.73.02.49.18,1.04.27,1.68.26h.03c5.61-.03,10.27-.23,14.65-.64,2.01-.12,4.35-.41,6.95-.87l.2-.03c.1-.01.2-.03.29-.05.09-.01.18-.03.27-.04.31-.04.68-.09,1.06-.22,7.23-1.41,14.11-3.54,14.82-3.76.56-.13,1.16-.33,1.83-.61,7.71-3.23,14.16-8.67,19.17-16.14,4.47-6.67,7.37-13.83,9.61-19.96.7-1.74,2.02-2.97,4.03-3.75.74.36,1.48.72,2.18,1.08,2.43,1.25,4.89,2.58,7.26,3.86,1.59.86,3.22,1.74,4.85,2.6,3.41,1.8,7.94,4.06,12.81,5.53,4.24,1.28,8.32,1.92,12.22,1.92,9.32,0,17.64-3.65,24.84-10.92,3.13-3.17,6.01-6.72,8.78-10.86.77-1.15,1.54-2.3,2.31-3.45,1.52-2.27,3.05-4.55,4.57-6.82,5.16-7.75,12.21-12.72,21.54-15.19,6.29-1.67,12.67-2.62,19.19-3.53,6.9-.96,14.72-2.05,22.22-3.75,7.67-1.75,13.76-4.01,19.16-7.13,8.02-4.63,13.28-11.4,15.65-20.12.84-3.09,1.71-6.77,1.84-10.65.21-6.17.33-12.26.43-17.42.02-.92.03-1.84.04-2.76.07-4.77.14-9.7.8-14.46,1.02-7.36,2.2-15.04,3.62-23.49,2.52-15.03,2.93-30.35,1.22-45.54Z"/>
  <path class="cls-4" d="m543.87,544.26c.28-.24.56-.49.84-.73.1.68-.23.87-.84.73Z"/>
  <path class="cls-3" d="m5,3.84c-.24.27-.47.54-.71.81-.13-.59.05-.91.71-.81Z"/>
  <path class="cls-5" d="m378.91,283.96c-.06-.47-.45-.82-.93-.84-1.91-.08-3.85-.16-5.73-.25-4.11-.19-8.37-.38-12.56-.45-18.75-.31-38.76-.52-59.03.68-17.59,1.04-30.93,2.51-43.24,4.77-7.52,1.38-17.33,3.49-26.52,7.59-5.34,2.38-11.3,5.63-15.06,11.62-.3.48-.51.51-1.63.26l-.14-.03c-.31-.07-.64.02-.87.23-.75.69-1.6.59-2.93.36-.18-.03-.36-.06-.54-.09-1.13-.18-2.33-.47-3.77-.94-4.14-1.33-8.01-1.9-11.83-1.74h-.07c-.91.04-1.69.07-2.27-.41-.15-.12-.32-.2-.51-.22-2.12-.26-3.96.43-5.73,1.09-.3.11-.59.22-.89.33-.98.35-1.56.22-2.29-.49-6.75-6.55-14.71-10.97-22.3-14.78-9.5-4.76-20.29-8.92-33.01-12.72-20.83-6.22-44.08-10.74-71.08-13.83-1.01-.12-2.05-.26-3.05-.41-2.75-.4-5.6-.8-8.5-.62-.36.02-.68.24-.83.57-.14-.06-.3-.09-.47-.07l-.24.02c-.33.03-.62.23-.77.53-.15.3-.14.65.03.93.07.12.15.23.22.33.03.05.08.11.1.15.63,5.35,2.73,10.27,4.91,14.79,2.97,6.16,6.87,14.29,10.76,22.51.56,1.18,1.06,2.44,1.55,3.65.29.71.58,1.45.89,2.17.21.48.25,1,.2,1.61-.06.08-.11.17-.15.27-.14.4,0,.85.33,1.1,0,.18.03.36.13.52.33.58.65,1.16.98,1.74.7,1.26,1.43,2.55,2.19,3.81,6.42,10.52,12.96,19.34,19.98,26.96,5.31,5.75,11.16,10.85,17.38,15.15,9.91,6.84,21.4,10.23,35.11,10.38.84,0,1.69-.07,2.4-.14,8.27-.89,15.94-3.9,22.78-8.95,5.63-4.16,10.57-9.48,15.11-16.26,3.37-5.04,6.32-10.66,9.01-17.16.53-1.29,1.1-2.52,2.18-3.39,2.63-2.14,5.29-3.29,8.15-3.5.93-.07,1.88-.13,2.81-.18.43-.03.85-.05,1.28-.08.06,0,.12-.01.18-.03.18-.04.35-.09.53-.14,1.26-.34,2-.51,2.67.08.08.13.18.25.32.34l.11.07c.2.14.45.19.7.15.07-.01.14-.03.21-.06.11,0,.23,0,.34,0,.58,0,1.13-.01,1.62.08.98.19,1.01.59.98.93,0,.03-.02.06-.03.09-.12.41.04.85.39,1.09.36.24.83.22,1.16-.05.25-.21.47-.38,1.17.2,1.51,1.26,2.45,3.02,3.1,4.41,2.76,5.89,4.54,11.23,5.43,16.34.04.2.03.46.02.72,0,.16,0,.32,0,.47,0,.04,0,.08,0,.12,0,.07.01.14.02.2.01.28.03.66.25,1.03,5.07,8.76,10.19,15.36,16.1,20.76,7.31,6.68,15.59,11.24,24.6,13.57,5.44,1.4,10.93,1.66,16.52,1.66.93,0,1.87,0,2.81-.02,6.7-.07,13.2-1.92,20.45-5.83,4.69-2.52,9.34-5.63,13.83-9.23,13.76-11.05,26.58-24.91,39.18-42.39.16-.22.22-.49.17-.75-.05-.26-.21-.49-.44-.64-.14-.09-.2-.16-.23-.21.58-1,1.26-1.98,1.93-2.93l.29-.41c6.87-9.9,13.33-18.77,19.75-27.14.95-1.23,1.9-2.59,2.92-4.14.8-1.22,1.69-2.88,1.41-4.94Zm-105.8,91.19s-.09.05-.13.08c-7.53-.58-13.9-2.14-19.46-4.77-6.24-2.95-11.31-7.17-15.48-12.89-.15-.21-.31-.4-.46-.59-.52-.63-.83-1.04-.83-1.58,0-.32-.15-.62-.42-.81-1.15-.81-1.79-2.06-2.47-3.38-.19-.36-.38-.74-.58-1.11-3.72-6.71-6.58-14.45-8.75-23.65-.86-3.64-.35-6.89,1.6-10.24,2.49-4.27,5.88-7.43,10.1-9.39.06-.03.11-.06.16-.09,4.69-3.37,10-5.14,15.95-6.96,9.75-2.98,19.66-4.39,27.2-5.29,9.36-1.11,19.15-1.46,29.1-1.04,7.08.3,13.22,1.18,18.78,2.67,4.02,1.08,7.14,2.38,9.83,4.09,7.36,4.69,9.61,11.73,6.32,19.84l-.05.13c-.21.51-.41,1-.65,1.45-8.01,14.76-16.21,25.87-25.8,34.97-7.52,7.14-15.14,12.12-23.29,15.21-7.56,2.87-13.96,3.9-20.12,3.26-.03,0-.07,0-.1,0-.15,0-.3.04-.44.11Zm-100.01-49.37c-.88,5.82-2.15,10.49-4.02,14.7-3.15,7.09-7.46,12.51-13.18,16.56-1.46,1.03-3.24,2.16-5.36,2.69-12.62,3.15-24.11,2.99-35.13-.48-.19-.06-.41-.18-.64-.32-.14-.08-.28-.16-.42-.23-.13-.07-.28-.1-.43-.11-1.31-.02-2.5-.59-3.77-1.18-.33-.16-.66-.31-.99-.46-8.75-3.87-16.49-9.82-23.65-18.19l-.54-.63c-2.5-2.91-5.08-5.92-6.69-9.45-.07-.15-.17-.27-.3-.37-.56-.42-.96-1.04-1.35-2.07-.04-.11-.11-.22-.19-.31-1.1-1.2-1.7-2.26-1.93-3.43-.03-.13-.08-.25-.15-.36-.13-.18-.25-.36-.38-.54-1.22-1.73-2.37-3.37-2.49-5.42-.02-.4-.29-.73-.66-.86-.02,0-.04-.01-.06-.02-2.9-4.99-4.9-10.06-5.94-15.08-1.99-9.62,2.99-17.47,12.69-20.02.04-.01.09-.03.13-.04,3.32-1.39,6.92-1.49,10.4-1.58,7.86-.21,16.09.9,25.92,3.5,11.26,2.98,20.15,5.97,27.99,9.42,6.48,2.85,11.89,5.87,16.56,9.24,3.92,2.82,7.01,5.72,9.45,8.85,2.55,3.27,4.15,6.46,4.89,9.76.49,2.16.56,4.27.24,6.44Z"/>
  <path class="cls-5" d="m386.9,86.02c-2.61-5.66-6.27-9.42-11.07-12.62,1.66-1.38,3.08-2.42,4.34-3.64,1.3-1.26,2.53-2.62,3.61-4.07,1.07-1.43,1.93-3.02,2.95-4.66,1.66,2.15,3.11,4.28,4.82,6.18,1.71,1.9,3.68,3.56,5.75,5.53-1.36,1.24-2.74,2.34-3.92,3.62-1.23,1.33-2.33,2.79-3.35,4.3-1,1.48-1.82,3.08-3.14,5.35Z"/>
  <path class="cls-2" d="m510.2,332.55c-.29-.17-.57-.32-.74-.48,0,0,0,0,0,0-.46-.41-.93-.77-1.39-1.11-.4-.3-.78-.59-1.12-.89-.91-.79-1.77-1.61-2.55-2.42-.77-.8-1.41-1.54-1.95-2.27-.75-1-1.37-1.94-1.91-2.88-.46-.8-.83-1.67-1.23-2.59l-.06-.13c-.27-.64-.52-1.29-.81-2.04-.13-.35-.27-.72-.43-1.11-.24-.61-.82-1.02-1.48-1.03-.65-.02-1.25.37-1.52.97-.67,1.5-1.15,2.78-1.57,3.92-1.74,4.65-2.61,6.98-12.95,14.21-.47.33-.73.87-.69,1.44s.38,1.08.88,1.33c4.01,2.04,6.96,4.27,9.28,7.01,2.35,2.78,3.51,6.27,4.73,9.97.11.34.23.69.34,1.03.22.65.82,1.09,1.5,1.11.01,0,.03,0,.04,0,.67,0,1.27-.41,1.51-1.03,4.66-11.9,6.08-13.81,13.82-18.59.65-.4.93-1.2.68-1.92-.49-1.42-1.59-2.04-2.4-2.5Z"/>
  <path class="cls-2" d="m480.97,307.45c.09.2.19.39.27.59.1.24.26.46.47.62,1.72,1.41,3.51,2.11,5.31,2.11,1.65,0,3.31-.59,4.94-1.77.21-.15.38-.36.5-.59.1-.19.2-.38.31-.58.26-.49.56-1.04.77-1.65,1.01-3,.18-5.93-2.2-7.84-2.33-1.87-5.8-1.99-8.26-.28-2.53,1.75-3.57,4.62-2.78,7.68.17.64.44,1.21.67,1.72Z"/>
  <path class="cls-2" d="m368.74,76.08s0,0,0,0c.64.4,1.29.73,1.92,1.04.47.24.92.46,1.34.7,3.21,1.87,6.72,4.33,8.43,8.45.06.13.13.26.22.37,1.28,1.65,1.66,3.75,2.06,5.96l.02.13c.04.23.07.48.11.74.06.51.14,1.09.31,1.68.42,1.39,1.53,2.33,2.97,2.53.17.02.33.03.49.03,1.3,0,2.44-.73,3.04-1.97.3-.61.48-1.21.66-1.79.1-.33.19-.64.3-.92.21-.55.39-1.11.56-1.64.4-1.26.78-2.44,1.49-3.39.09-.12.16-.24.21-.38,2.38-6.04,5.52-9.37,10.18-10.8.38-.12.76-.29,1.17-.52,1.02-.6,1.68-1.64,1.76-2.78.09-1.14-.39-2.22-1.3-2.96-.59-.47-1.2-.87-1.79-1.24-.33-.21-.64-.41-.94-.62-7.07-4.9-10.69-9.91-11.75-16.23-.29-1.75-1.09-2.64-1.71-3.07-.72-.5-1.6-.69-2.49-.53-2.25.41-2.95,2.23-3.15,3.68-.01.1-.02.21-.03.31,0,.05,0,.1-.01.15-.95,7.3-4.78,12.57-11.71,16.11l-.18.09c-.8.41-1.63.83-2.41,1.4-.83.6-1.31,1.63-1.27,2.75.04,1.14.59,2.15,1.48,2.72Zm9.78-2.78c.98-.79,1.91-1.54,2.78-2.38,1.43-1.39,2.7-2.82,3.78-4.26.66-.88,1.23-1.79,1.8-2.74.01.02.03.04.04.06,1.13,1.52,2.19,2.95,3.43,4.31,1.23,1.36,2.55,2.58,3.96,3.87.2.18.39.36.59.55-.92.8-1.86,1.63-2.71,2.56-1.19,1.29-2.33,2.76-3.5,4.49-.6.89-1.14,1.82-1.73,2.86-2.1-3.62-4.8-6.6-8.44-9.31Z"/>
  <path class="cls-2" d="m84.08,146.16c7.74,4.11,9.11,5.78,13.35,16.24.24.6.83,1,1.48,1.01,0,0,.02,0,.03,0,.64,0,1.22-.38,1.48-.96.36-.8.7-1.61,1.04-2.39.75-1.75,1.46-3.41,2.29-5.03,2.27-4.44,5.03-7.21,8.69-8.71.67-.28,1.11-.72,1.3-1.31.12-.38.17-.97-.22-1.68-.39-.9-1.13-1.37-1.63-1.68-.16-.1-.31-.19-.41-.27-.48-.41-.95-.82-1.42-1.23l-.62-.54c-.05-.04-.1-.08-.16-.12-4.03-2.71-6.84-6.67-8.83-12.47-.19-.54-.65-.95-1.21-1.06-.56-.12-1.14.07-1.53.5-.97,1.06-1.29,2.19-1.54,3.1-.09.33-.18.64-.29.9-1.35,3.27-3.04,6.56-6.27,8.55-.16.1-.3.22-.42.37-1.04,1.31-2.59,2.07-4.23,2.88-.28.14-.56.27-.83.41-.41.21-.71.58-.83,1.02-.13.46-.14.92-.04,1.39.1.47.4.86.82,1.09Z"/>
  <path class="cls-2" d="m403.35,95.5c-.96,1.17-1.42,2.67-1.25,4.11.34,2.85,2.76,4.98,5.65,4.98.02,0,.05,0,.07,0,1.53-.02,3.02-.69,4.09-1.84,1.03-1.11,1.58-2.58,1.49-4.02-.09-1.51-.77-2.89-1.92-3.9-1.16-1.01-2.63-1.51-4.15-1.4-1.53.11-2.98.87-3.98,2.08Z"/>
  <path class="cls-2" d="m65.72,190.6c2.06,1.26,4.03,2.54,5.52,4.35,1.51,1.83,2.37,4.02,3.2,6.74.19.62.73,1.07,1.38,1.14.06,0,.12,0,.17,0,.58,0,1.13-.32,1.42-.83q4.62-8.29,9.3-12.32c.35-.3.56-.74.56-1.21s-.19-.91-.53-1.22l-4.01-3.65c-.06-.05-.12-.1-.19-.15-1.99-1.34-3.02-3.43-4.2-5.84-.27-.56-.56-1.14-.86-1.71-.29-.55-.87-.89-1.49-.87-.62.02-1.18.39-1.43.96-.29.66-.56,1.31-.81,1.95-.91,2.27-1.7,4.24-3.5,5.48-.06.05-.13.09-.18.15l-.69.64c-.55.51-1.1,1.02-1.64,1.54-.06.06-.29.17-.44.25-.71.37-2.05,1.05-2.34,2.95-.1.65.2,1.29.75,1.64Z"/>
  <path class="cls-2" d="m56.65,155.29s.09,0,.13,0c2.79-.07,5.32-2.48,5.52-5.27.1-1.44-.42-2.92-1.44-4.04-1.05-1.16-2.52-1.85-4.05-1.9-1.55-.05-3,.51-4.09,1.56-1.09,1.05-1.69,2.47-1.69,4,0,1.5.61,2.96,1.7,4.03,1.05,1.03,2.48,1.62,3.93,1.62Z"/>
  <path class="cls-2" d="m172.4,428.71c2.79.26,5.48-.44,7.98-2.06,1.12-.73,2.2-1.52,3.24-2.29l.56-.42c1.62-1.2,3.12-1.18,4.85.06.51.36,1,.74,1.52,1.15.45.35.91.7,1.39,1.05,3.28,2.39,6.82,4.02,10.5,4.84,1.42.31,2.77.47,4.08.47,1.53,0,3-.21,4.43-.64,4.49-1.35,6.68-4.27,6.69-8.92,0-3.58-1.31-6.78-2.6-9.44-1.41-2.91-3.24-5.55-5-8.11-.23-.34-.46-.67-.7-1.01l-.42-.62c-1.8-2.62-3.66-5.33-5.31-8.08-2.58-4.29-3.66-9.13-3.21-14.4.18-2.16.44-4.37.68-6.5.13-1.16.27-2.32.39-3.48.28-2.64.55-5.27.83-7.91l.36-3.47c0-.05,0-.1,0-.15.02-2.54-.27-5.18-.9-8.1-1.04-4.79-3.48-8.52-7.27-11.08-2.5-1.69-4.49-1.63-5.72-1.27-1.2.35-2.88,1.32-4.05,3.97-.18.42-.39.89-.57,1.39-2.05,5.84-4.56,11.63-6.99,17.24l-.19.44c-.46,1.05-.92,2.11-1.38,3.16-2.97,6.82-6.05,13.87-8.58,21.04-2.97,8.42-4.81,16.24-5.63,23.9-.42,3.98-.18,7.45.74,10.61,1.42,4.87,5.36,8.18,10.28,8.64Z"/>
  <path class="cls-2" d="m411.65,203.61l.02.09c.12.62.24,1.26.47,1.91.41,1.16,1.21,2.08,2.26,2.59.59.28,1.23.42,1.88.42.53,0,1.07-.09,1.59-.28,2.73-.97,4.14-3.28,3.69-6.04-.42-2.52-1.15-5.07-2.24-7.79-2.31-5.76-5.76-11.34-10.56-17.07-7.35-8.78-15.83-16.96-25.21-24.3-4.5-3.52-8.93-6.23-13.56-8.29-4.88-2.17-9.1-3.34-13.28-3.67-.04,0-.08,0-.13,0-.04,0-.07,0-.11,0-.29-.02-.76-.06-1.28.12-.72.25-1.52.91-1.67,1.82-.16.98.45,1.95,1.11,2.37.56.36,1.2.6,1.84.72,3.17.57,6.31,1.9,9.86,4.19,15.07,9.7,28.12,22.47,38.79,37.98,3.3,4.8,5.49,9.92,6.52,15.24Z"/>
  <path class="cls-2" d="m153.71,251.01c-1.02-.52-2.11-.95-3.25-1.28-7.76-2.21-16.18-2.78-25.03-1.7-3.63.44-7.17,1.34-10.53,2.67-.55.22-1.84.73-2.29,2.4-.14.52-.01,1.08.34,1.49.36.41.89.61,1.43.54,6.48-.82,13.12-.66,19.72.47,2.48.43,5,.92,7.43,1.4,1.66.33,3.38.67,5.08.98l.29.05c1.57.29,3.2.59,4.87.67.06,0,.12,0,.18,0,1.7,0,3.08-1.12,3.72-3.02.58-1.73-.3-3.83-1.95-4.68Z"/>
  <path class="cls-2" d="m206.22,374.45c.04.64.07,1.14.12,1.65.71,8.05,3.79,15.59,9.67,23.71.57.79,1.36,1.49,2.21,1.95.56.31,1.16.46,1.76.46.87,0,1.75-.32,2.57-.95,0,0,0,0,0,0,1.39-1.08,1.9-2.65,1.38-4.21-.34-1.02-.86-1.93-1.37-2.76-.7-1.13-1.42-2.27-2.12-3.37-.74-1.17-1.51-2.38-2.24-3.57-2.52-4.11-4.01-8.21-4.58-12.53-.17-1.27-.4-2.53-.62-3.76-.08-.42-.15-.84-.23-1.26v-.07c-.12-.61-.23-1.25-.43-1.9-.43-1.41-1.39-2.26-2.64-2.34-1.48-.1-2.68.94-2.91,2.51-.2,1.34-.36,2.66-.5,3.83-.05.4-.1.78-.14,1.13-.01.1-.02.21,0,.32.03.44.06.82.08,1.16Z"/>
  <path class="cls-2" d="m284.82,442.41c2.82,1.47,5.82,2.46,8.71,3.41l.86.29c2.57.85,5.19,1.65,7.73,2.42,5.42,1.65,11.03,3.35,16.29,5.65.66.29,1.44.45,2.18.45.12,0,.24,0,.35-.01,1.64-.12,2.78-1.3,2.97-3.09.13-1.11-.39-2.26-1.32-2.93h0c-.88-.63-1.8-1.29-2.78-1.87.16.04.31.07.46.09.14.02.28.03.41.03,1.57,0,2.97-1.38,3.36-2.83.32-1.17.04-2.28-.75-3.12.93.29,1.86.54,2.81.72.22.04.43.06.65.06,1.75,0,3.41-1.35,3.88-3.26.4-1.63-.41-3.55-1.9-4.48h0c-1.52-.95-3.12-.98-4.41-1.01-.22,0-.43,0-.64-.02-.02,0-.04,0-.06,0-1.82-.02-3.6.05-5.31.96-.87.46-1.44,1.46-1.45,2.54-.01.96.44,1.79,1.2,2.21.3.17.6.33.91.49-3.6-.69-7.24-1.38-10.77-2.04l-3.52-.66c-.27-.05-.56-.03-.82.06-.07.02-.2.05-.31.08-.55.13-1.58.36-1.89,1.42-.2.67-.13,1.35.2,1.92.38.66,1.05,1.1,1.98,1.32.49.12.99.24,1.49.37-1.6-.36-3.2-.69-4.77-1.02-4.26-.88-8.67-1.8-12.84-3.22-.35-.12-.82-.28-1.37-.29-2.14-.04-2.83,1.34-3.03,1.94-.46,1.38.12,2.68,1.51,3.41Z"/>
  <path class="cls-2" d="m84.54,388.44h0c-.9-.26-1.8-.47-2.68-.67-.59-.14-1.2-.28-1.78-.43-4.11-1.06-6.22-3.45-6.64-7.52-.09-.88-.18-1.77-.26-2.65-.16-1.67-.33-3.39-.52-5.09-.1-.93-.27-2.16-.6-3.37-.29-1.03-1.47-1.92-2.54-1.92,0,0-.01,0-.02,0-.99,0-2.3.8-2.6,1.92-.85,3.23-1.27,5.8-1.24,7.65,0,.54,0,.97,0,1.32,0,.6,0,1,0,1.4.19,8.76,4.36,14.14,12.74,16.45,1.31.36,2.59.63,3.79.79.18.02.36.04.55.04.6,0,1.26-.12,1.96-.36,1.66-.57,2.78-2.32,2.68-4.15-.09-1.65-1.15-2.92-2.84-3.4Z"/>
  <path class="cls-2" d="m137.9,425.59c.28,1.2,1.14,2.08,2.37,2.41.34.09.67.14,1,.14,1.14,0,2.18-.54,2.79-1.51.66-1.04,1.09-2.06,1.27-3.04.42-2.28.77-4.61,1.12-6.85.13-.86.26-1.71.4-2.57.01-.06.02-.13.02-.19.08-2.08-.29-3.92-1.11-5.62-.39-.8-1.33-1.37-2.2-1.31-.68.04-1.81.47-2.17,1.48-1.95,5.44-3.17,9.97-3.84,14.25-.14.89.08,1.73.25,2.41.04.14.07.28.1.42Z"/>
  <path class="cls-2" d="m426.04,218.23c.29-1.04.42-2.13.4-3.17-.04-1.39-.59-2.66-1.56-3.58-.97-.92-2.27-1.4-3.66-1.36-2.86.09-4.9,2.32-4.97,5.43,0,.11,0,.21.02.32.02.12.04.26.06.41.07.47.16,1.06.32,1.67.61,2.37,2.4,3.82,4.68,3.82.06,0,.12,0,.18,0,2.17-.07,3.95-1.46,4.52-3.54Z"/>
  <path class="cls-2" d="m223.47,406.33c-.5-.53-1.14-.71-1.48-.81-.03,0-.05-.02-.08-.02-.15-.06-.32-.1-.48-.11-1.14-.09-2.28.45-2.97,1.41-.67.92-.82,2.06-.4,3.06.92,2.21,1.42,4.13,1.59,6.04.16,1.84,1.85,3.37,3.69,3.37.07,0,.13,0,.2,0,1.08-.07,2.16-.63,2.88-1.51.67-.81.97-1.79.84-2.76-.5-3.74-1.69-6.49-3.77-8.66,0,0,0,0,0,0Z"/>
  <path class="cls-2" d="m146.12,403.33c.06,0,.13,0,.19,0,1.51-.05,2.8-.6,3.64-1.56.69-.78,1.01-1.79.91-2.84-.22-2.27-2.4-3.87-5.08-3.72-1.17.07-2.23.57-2.98,1.43-.72.82-1.07,1.87-.99,2.95.17,2.22,1.93,3.73,4.32,3.73Z"/>
  <path class="cls-2" d="m387.66,367.61c-.05-.14-.1-.28-.15-.42-.21-.58-.43-1.18-.65-1.77-.14-.36-.56-1.45-1.68-1.76-.37-.1-1.09-.18-1.9.37-.04-.2-.08-.41-.13-.63-.08-.36-.16-.75-.25-1.19-.1-.51-.45-.94-.92-1.16-.48-.21-1.03-.19-1.48.07-1.56.89-2.48,2.22-2.75,3.94-.26,1.66.28,3.36,1.56,4.92.34.42.86.64,1.46.64.05,0,.1,0,.16,0,.84-.05,1.26-.53,1.44-.81.27-.42.54-.9.76-1.44.41.64,1.07,1.32,2.09,1.62.46.48,1.02.53,1.25.54.07,0,.14.01.2.01.59,0,1.14-.32,1.43-.85.33-.61.24-1.37-.24-1.88l-.19-.2Z"/>
  <path class="cls-2" d="m416.91,376.62c0-.21,0-.69-.33-1.17-.98-1.43-2.58-1.51-3.11-1.53-.48-.02-.97.16-1.36.53-.4.37-.62.85-.63,1.34,0,.19.01.37.04.53-.16-.08-.34-.14-.54-.18-1.02-.17-1.65.15-2.01.45-.47.4-.73.98-.72,1.64,0,1.21,1.13,1.62,1.49,1.75.05.02.11.04.15.05.22.1.45.15.68.15.25,0,.51-.06.74-.18l.73-.38c.48-.25.81-.71.87-1.24.3.2.58.33.77.42.27.13.59.21.93.21.42,0,.85-.12,1.21-.42.28-.23.48-.48.62-.67.03-.04.07-.09.1-.13.28-.33.41-.75.37-1.18h0Zm-2.2-.83s.01.05.01.06c0,0,0,.01,0,.02-.05-.03-.11-.06-.17-.09.05,0,.1,0,.16,0Zm-3.62,3.25c-.28.26-.59.3-.69.3-.01,0-.03,0-.04,0l.92-1.13h0s0,0,0,0h0l-.29-.57.16-.35c.18.23.32.56.33.95,0,.22-.1.55-.38.82Zm2.67-2.01s.06.04.09.06c-.02,0-.04.02-.06.02-.01-.03-.02-.05-.03-.08Z"/>
  <path class="cls-2" d="m467,262.63c-.57-4.03-1.4-8.04-2.2-11.93-.47-2.3-.96-4.67-1.39-7.01-.01-.06-.03-.13-.05-.19-.13-.42-.26-.84-.4-1.26-.29-.89-.56-1.73-.79-2.59-5.33-19.8-13.42-38.77-24.03-56.39-.93-1.55-1.87-3.1-2.81-4.65l-1.43-2.36c-.03-.05-.07-.11-.11-.16-.21-.27-.43-.54-.64-.81-.44-.56-.86-1.08-1.24-1.62-11.95-17.42-26.63-32.33-43.63-44.34-.71-.5-1.4-1.06-2.12-1.64-.34-.28-.68-.55-1.03-.82-.05-.04-.09-.07-.14-.1-1.39-.87-2.77-1.74-4.16-2.62-2.95-1.87-6.01-3.8-9.06-5.63-14.94-8.95-30.7-15.8-46.86-20.36-16.18-4.56-33.21-6.96-50.6-7.12-7-.06-14.28.18-21.64.74-13.03.98-24.49,2.86-35.04,5.74-14.54,3.97-28.15,9.38-40.44,16.09-12.85,7.01-24.69,15.66-35.19,25.72-.21.2-.5.41-.79.62-.17.12-.34.24-.51.37-.13.1-.24.22-.34.35-.1.14-.19.28-.28.42-.12.19-.24.38-.34.47-6.32,6.37-12.18,13.86-18.42,23.58-3,4.67-5.78,9.56-8.46,14.29-.8,1.42-1.61,2.83-2.42,4.24-.04.08-.08.16-.11.24-.07.19-.14.39-.21.59-.12.35-.23.69-.37.96-3.5,7.14-6.12,14.94-7.8,23.17-.52,2.58-1.2,5.19-1.85,7.72-.46,1.79-.94,3.65-1.37,5.49-1.18,5.1-3.58,8.74-7.35,11.12-.14.09-.27.2-.38.34-.25.3-.49.6-.74.9-.51.62-1.04,1.26-1.56,1.88-3.7,4.32-6.3,8.39-7.95,12.46-1.94,4.77-2.62,9.54-2.07,14.59-1.77-.25-3.57-.51-5.32-.77-3.06-.45-6.22-.91-9.35-1.31-6.16-.78-12.18-1.52-18.19-2.05-3.2-.29-6,.76-7.68,2.87-1.71,2.14-2.1,5.16-1.08,8.29.22.67.47,1.4.77,2.21,2.52,6.81,5.55,13.99,9.25,21.97.16.34.33.65.49.95.36.66.67,1.22.68,1.77,0,.27.08.53.21.77.22.38.44.76.66,1.14.47.8.92,1.56,1.32,2.35,4.78,9.43,8.8,16.46,13.03,22.81,1.32,1.98,1.75,3.83,1.44,6.19-.7,5.47-2.36,10.72-4.15,16.06-.76,2.27-1.56,4.58-2.33,6.82-1.09,3.16-2.22,6.42-3.26,9.66-1.65,5.12-2.54,9.97-2.7,14.81-.3,8.92,3.06,16.55,10,22.7,2.63,2.33,5.52,4.13,8.59,5.36,2.5,1,5.41,2.13,8.45,2.85,4.18.99,8.47,1.78,12.61,2.53l2.7.49c4.82.88,9.8,1.78,14.46,3.42,4.95,1.74,8.83,4.04,11.87,7.06.45.44,1.11,1.1,1.22,1.34,0,.27-.41,1.18-.58,1.58-1.25,2.86-2.67,6.2-3.65,9.6-1.93,6.67-3.17,13.75-3.7,21.04-.43,5.89-.22,10.67.64,15.03,2.02,10.18,7.63,17.69,16.68,22.32,2.7,1.38,5.7,2.5,9.72,3.62,7.14,1.99,14.85,3.19,24.27,3.76,3.29.2,6.64.36,9.88.52,3.81.18,7.74.38,11.61.63,5.64.37,10.96.56,16.02.56,6.25,0,12.09-.28,17.64-.85,8.21-.84,15.49-2.33,22.27-4.56,8.39-2.76,15.53-7.65,21.24-14.53,3.35-4.04,6.27-8.71,8.7-13.89,1.3-2.78,2.59-5.79,4.17-9.76.22-.54.51-1.29.74-1.74.31.14.73.36,1.12.57.22.12.45.24.71.37,1.9.98,3.82,2.01,5.67,3,2.11,1.13,4.3,2.3,6.47,3.42,5.22,2.68,9.38,4.34,13.49,5.39,15.31,3.89,28.57.37,39.41-10.47,2.9-2.9,5.62-6.25,8.83-10.87.46-.66.91-1.31,1.37-1.97,2.04-2.94,4.16-5.97,6.16-9.02,4.79-7.3,11.64-11.94,20.38-13.79,5.05-1.07,10.23-1.96,15.23-2.82,2.81-.48,5.69-.94,8.47-1.39,4.49-.72,9.13-1.46,13.68-2.33,8.81-1.68,16.28-4.32,22.84-8.05,9.2-5.23,15.26-13,18.03-23.09.5-1.83.85-3.71,1.19-5.52l.16-.87c.95-5.06,1-10.19,1.04-15.15,0-.67.01-1.35.02-2.02.02-1.72.02-3.46.01-5.15,0-4.14-.02-8.41.34-12.58.83-9.76,2.5-19.59,4.11-29.1.34-2.03.69-4.06,1.02-6.09.01-.09.02-.18.02-.27,0-.21,0-.43-.02-.64-.02-.35-.03-.69,0-.96,1.79-13.5,1.53-28.12-.8-44.69Zm-308.09,30.33c7.4,3.71,15.15,8.01,21.65,14.32,1.44,1.39,3.06,1.74,4.97,1.07.31-.11.62-.22.93-.34,1.56-.58,3.03-1.12,4.52-.94.14.02.29.02.43,0,7.49-1.09,14.84-.18,21.84,2.7.09.04.18.06.27.08l.14.03c1.08.24,3.08.69,4.4-1.42,3.38-5.39,8.69-8.29,13.92-10.63,4.69-2.09,11.88-4.83,25.93-7.41,12.2-2.24,25.44-3.7,42.93-4.73,20.18-1.2,40.13-.99,58.84-.68,4.15.07,8.39.26,12.48.45,1.88.09,3.83.17,5.75.25.12,0,.24,0,.36-.03.24-.04.46-.1.66-.15.22-.05.51-.13.64-.13h0c-.45.71-.95,1.41-1.39,2-8.13,10.98-16.86,22.75-25.6,34.5-.24.32-.55.64-.88.98-.18.18-.36.37-.53.55-.04.05-.09.1-.12.15-12.46,17.28-25.13,30.98-38.7,41.88-4.37,3.5-8.89,6.52-13.44,8.97-6.87,3.7-12.99,5.45-19.25,5.52-6.39.07-12.62,0-18.65-1.56-8.6-2.22-16.51-6.59-23.5-12.98-5.67-5.18-10.6-11.53-15.5-19.97,0-.01,0-.02,0-.03,0-.12-.01-.27-.04-.44-.04-.25-.13-.5-.28-.7-2.88-4.08-4.7-8.66-6.56-14.28-1.17-3.56-2.57-6.15-4.49-8.33-.04-.11-.09-.22-.15-.33-.23-.39-.62-.67-1.06-.76-1.2-.25-2.29-.97-3.44-1.72l-.26-.17s0,0,0,0l-.12-.08c-.36-.23-.77-.3-1.16-.24l-3.84-.42c-.09,0-.19-.01-.28,0-.43.03-.85.05-1.28.08-.93.06-1.89.11-2.84.19-3.4.26-6.54,1.59-9.59,4.08-1.54,1.26-2.3,2.87-2.94,4.42-1.8,4.36-3.72,8.3-5.8,11.93.01-.05.02-.09.03-.14.05-.26.07-.49.09-.71.12-.43.06-.91-.19-1.31-.1-.16-.22-.29-.36-.4h0c-.46-.39-1.1-.48-1.66-.25-.23.1-.43.24-.59.43-.22.16-.5.39-.74.73-.41.62-.49,1.36-.21,1.98.29.63.9,1.06,1.64,1.15.08,0,.15.01.22.01.47,0,.87-.19,1.17-.49-.77,1.29-1.55,2.54-2.37,3.76-4.37,6.53-9.11,11.64-14.5,15.62-6.46,4.77-13.7,7.62-21.51,8.46-.64.07-1.39.14-2.09.13-13.18-.14-24.19-3.39-33.66-9.92-2.51-1.73-4.96-3.6-7.33-5.59,3.9,2.92,7.98,5.33,12.33,7.25.31.14.62.29.93.43,1.28.61,2.72,1.29,4.41,1.41,0,0,.02.01.03.02.31.17.69.39,1.14.54.8.25,1.63.49,2.49.72.23.08.47.14.76.2,5.02,1.28,10.11,1.92,15.36,1.92,5.77,0,11.72-.78,17.93-2.33,2.55-.64,4.67-1.99,6.23-3.09,6.11-4.33,10.71-10.1,14.05-17.63,1.96-4.42,3.3-9.3,4.21-15.36.37-2.49.29-4.91-.27-7.39-.83-3.67-2.58-7.2-5.37-10.78-2.6-3.33-5.86-6.4-9.98-9.37-4.82-3.48-10.39-6.59-17.04-9.51-4.69-2.07-9.68-3.94-15.25-5.74-3.97-1.28-8.26-2.53-13.12-3.81-1.44-.38-2.9-.74-4.35-1.07-1.08-.33-2.21-.57-3.37-.73-5.58-1.12-10.72-1.7-15.69-1.79-7.74-.48-17.4-.15-23.57,6.57-2.82,2.57-4.71,5.9-5.47,9.64-1.44,5.49-.46,11.41,2.91,17.59,1,2.39,2.2,4.78,3.58,7.12.02.03.04.06.05.09.11.22.22.45.33.67.45,2.12,1.6,3.78,2.73,5.39.1.19.2.39.3.58.34,1.2.96,2.34,1.89,3.47.74,1.31,1.47,2.55,2.2,3.74-3.3-4.44-6.52-9.24-9.71-14.48-.74-1.21-1.45-2.49-2.14-3.72-.18-.32-.35-.63-.53-.95.12-.41.07-.78-.02-1.06-.27-.81-.93-1.13-1.44-1.26-.41-.43-.71-1.03-1.05-1.7-.14-.27-.28-.55-.43-.83-6.23-11.29-11.84-23.44-16.68-36.11-.49-1.29-.92-2.46-1.16-3.64-.08-.38-.07-.59,0-.72.03,0,.05,0,.08.01.88.12,1.68-.16,2.26-.75,2.37-.06,4.73.28,7.21.63,1.02.15,2.07.3,3.12.42,26.85,3.07,49.95,7.56,70.63,13.74,12.57,3.76,23.23,7.86,32.59,12.55Zm-61.41,112.01c-.83-.16-1.67-.32-2.5-.48-5.12-1.01-10.12-2.05-14.86-3.7-4.03-1.4-7.47-3.18-10.49-5.43-6.84-5.08-9.65-11.8-8.59-20.55.65-5.43,2.27-10.72,3.92-15.63.48-1.42.97-2.87,1.46-4.27,1.77-5.16,3.61-10.49,4.89-15.95.15-.66.22-1.3.29-1.92.04-.38.08-.75.13-1.09,4.5,5.89,8.49,10.5,12.54,14.48.64.63.82,1.11.73,1.9-.23,2.01-.32,3.93-.26,5.72.18,5.43,2.66,9.18,7.38,11.14.15.06.35.19.55.32.14.09.28.18.42.26.21.12.44.2.68.22,4.69.4,9.71.56,14.58-.94.86-.26,1.63-.23,2.42.11,3.54,1.53,7.16,2.7,10.82,3.47-1.64.77-3.33,1.54-5.02,2.14-5.89,2.08-10.51,3.07-14.99,3.22-.61.02-1.16.39-1.42.94-.22.48-.81,1.76-.2,2.96.26.51.82,1.16,2.03,1.41,3.6.72,7.49.77,11.9.17,7.03-.96,13.49-3.57,19.18-7.73,1.68-1.23,3.15-1.78,4.91-1.84,7.75-.25,15.18-2.65,22.7-7.32,6.89-4.28,12.99-10.22,18.67-18.16,1.96-2.75,3.62-5.69,5.23-8.53.83-1.48,1.7-3.01,2.58-4.47.04-.07.08-.14.11-.22.22-.54.47-1.1.7-1.64.55-1.27,1.12-2.58,1.57-3.96.5-1.54,1.52-2.68,3.41-3.79,3.8-2.23,7.71-2.24,11.96-.03,1.62.84,2.66,2.2,3.29,4.27,2.06,6.79,5.1,13.66,9.01,20.4,4.04,6.96,8.47,12.78,13.54,17.79,6.2,6.13,12.74,10.59,19.93,13.58-.44.28-.72.75-.75,1.28-.06,1.05-.03,2.45.68,3.9,3.56,7.21,8.94,13.23,16.44,18.43,2.9,2.01,4.89.57,5.81-.47,1.68-1.89,1.82-4.4.35-6.25-.67-.84-1.5-1.54-2.22-2.12-3.52-2.86-6.97-6.24-11.2-10.96-.3-.33-.6-.67-.91-1,4.22,1.34,8.97,1.99,14.73,2.04,3.96.03,7.89.23,10.88.4,13.58.78,24.58.06,34.61-2.27,14.01-3.24,23.99-11.9,29.67-25.72,2.67-6.5,2.85-13.22.53-19.96-.43-1.25-.3-1.93.55-3.03,3.08-3.98,6.12-8.09,9.06-12.06,1.22-1.65,2.45-3.3,3.67-4.95,1.75,9.35,2.19,19.61,1.41,32.29-.18,2.91-.28,5.87-.37,8.73-.03,1.07-.07,2.13-.11,3.2-.12,3.25.53,6.3,1.11,8.6,1.68,6.68,5.5,11.65,11.34,14.78,2.26,1.21,4.27,2.08,6.14,2.66,11.36,3.52,22.73,3.31,33.82-.64,1-.36,1.94-.81,2.85-1.24.21-.1.42-.2.63-.3,2-.94,2.97-2.72,2.73-5-.03-.29-.14-.56-.31-.8-2.55-3.43-5.97-2.18-7.09-1.77-6.07,2.22-12.44,3.17-19.04,2.85.1-.01.19-.03.26-.05.65-.15,1.74-.68,1.85-2.54,0-.08,0-.16,0-.23,0-.05,0-.11,0-.17-.01-.24-.03-.58-.12-.94-.1-.37-.35-1.34-1.29-1.79-.55-.27-1.19-.27-1.79,0,0,0,0,0,0,0-.01,0-.02.01-.03.02-.17-.32-.37-.56-.56-.72.8-.22,1.6-.9,1.72-1.78.25-1.9-1.37-4.06-3.27-4.36-.3-.05-.6-.01-.88.1-.04.02-.08.03-.12.04-.31.1-.83.26-1.25.74-.46.53-.8,1.5-.48,2.4.37,1.01.95,1.78,1.69,2.28-1.71.46-2.09,1.76-1.88,2.74.34,1.62,1.46,2.6,2.94,2.6.07,0,.14,0,.21,0,.18-.01.34-.04.5-.08.4,1.12,1.05,1.56,1.64,1.71-2.21-.15-4.45-.43-6.71-.87-2.09-.4-4.22-1.12-6.52-2.21-5.36-2.54-8.37-6.96-9.2-13.52-.27-2.11-.28-4.33-.29-6.49v-.17c-.01-1.99,0-4.35.21-6.71.97-10.99-.46-22.23-4.49-35.36-.15-.49-.3-.99-.44-1.48-.16-.53-.31-1.06-.47-1.59-.14-.44-.08-.72.2-1.08,1.01-1.27,1.97-2.59,2.9-3.87,1.67-2.3,3.24-4.48,5.14-6.43.09-.1.18-.2.24-.32,1.35-2.33,2.97-4.43,4.7-6.65,1.09-1.4,2.22-2.86,3.26-4.36.16-.22.31-.45.47-.67.77-1.08,1.56-2.2,2.09-3.51.77-1.9.72-3.77-.13-5.27-.89-1.55-2.56-2.57-4.71-2.89-.62-.09-1.21-.1-1.78-.1h-.26c-1.49-.02-3-.03-4.46-.04-3.03-.01-6.16-.03-9.22-.18-14.09-.67-29.12-.79-47.29-.38-.18,0-.36,0-.53.01-.34,0-.67.02-1,.02.16-2.88-1.99-4.35-3.06-5.08-5.56-3.81-12.11-6.19-19.48-7.08-4.92-.59-10.11-.63-16.34-.11-.68.06-1.38.28-1.98.64-.32.19-.73.58-.86,1.33-.05.27-.16,1.2.42,1.9.87,1.07,2.05,1.18,2.83,1.25.11.01.21.02.32.03,6.02.75,13.08,1.85,19.71,4.32,2.17.81,4.46,1.68,6.55,2.77.43.22.86.39,1.28.55-.46-.02-.94-.04-1.43-.02-15.09.79-34.91,2.26-54.31,6.54-7.27,1.6-13.19,3.4-18.65,5.64-5.83,2.4-12.44,5.64-17.26,11.47-.28.34-.38.46-1.56.1-4.99-1.55-9.97-2.41-14.82-2.57-4.58-.15-8.6.32-12.3,1.42-1.09.33-1.37.2-1.79-.18-4.35-3.99-9.59-7.61-16.5-11.37-1.2-.65-1.87-1.37-2.26-2.4-.4-1.07-.88-2.1-1.34-3.1-.38-.82-.74-1.59-1.06-2.39-3.49-8.65-10.29-13.65-20.22-14.87-11.26-1.38-21.27-.75-30.61,1.95-.79.23-1.48.17-2.33,0-7.39-1.51-15.17-3.07-23.8-4.78-.1-.02-.18-.04-.24-.06,1.16-11.24,4.74-19.18,11.26-24.97,2.86-2.54,6.69-5.79,11-8.5,5.58-3.51,11.36-6.54,16.28-9.04,2.11-1.07,4.22-2.14,6.33-3.21,3.33-1.69,6.67-3.39,10-5.09.89-.45,1.93-1.01,2.94-1.67,1.65-1.08,2.29-2.98,1.61-4.71-.78-1.96-2.83-2.89-5-2.27-.77.22-1.51.51-2.21.79-.3.12-.59.23-.89.34-.21.08-.4.2-.56.35-.78.75-1.85,1.21-2.98,1.69-.45.19-.92.39-1.38.62-.98.47-1.95.94-2.93,1.41-7.37,3.55-14.98,7.21-22.16,11.54l.22-.97c1.09-4.78,2.21-9.72,3.41-14.54,1.46-5.9,3.67-11.81,6.73-18.08,4.26-8.7,9.49-16.87,13.57-23.03.29-.03.58-.14.83-.33.54-.42.74-1.12.56-1.74.25-.54.61-.96,1.1-1.29.24-.16.43-.38.56-.64,1.05-2.15,2.61-3.96,4.26-5.88.32-.37.63-.74.95-1.11,10.72-12.71,23.77-23.29,39.88-32.34,19.76-11.1,41.21-18.19,63.75-21.07,29.95-3.82,56.87-1.96,82.3,5.7,17.29,5.2,33.41,12.45,47.91,21.52,14.77,9.24,28.26,20.64,40.09,33.87,15.6,17.44,27.67,38.26,36.91,63.64,5.31,14.59,8.89,29.87,10.64,45.42,1.68,14.92,1.27,29.97-1.2,44.73-1.42,8.47-2.61,16.18-3.63,23.57-.68,4.94-.76,9.96-.82,14.82-.01.92-.03,1.83-.04,2.75-.09,5.14-.22,11.23-.43,17.37-.12,3.58-.95,7.06-1.74,9.98-2.19,8.06-6.86,14.06-14.29,18.35-5.14,2.97-10.97,5.13-18.35,6.81-7.38,1.68-15.13,2.76-21.97,3.71-6.61.92-13.08,1.89-19.53,3.6-9.92,2.63-17.73,8.15-23.22,16.4-1.52,2.28-3.04,4.55-4.56,6.82-.77,1.15-1.54,2.3-2.31,3.45-2.67,3.99-5.43,7.4-8.43,10.43-4.77,4.82-10.08,7.94-15.79,9.28-5.58,1.31-11.75.97-18.34-1.02-4.6-1.39-8.8-3.47-12.29-5.32-1.61-.85-3.24-1.73-4.82-2.58-2.38-1.29-4.85-2.62-7.31-3.88-7.08-3.65-13.28-5.72-19.54-6.52-1.55-.2-2.95-.3-4.29-.32-.02,0-.04,0-.06,0-2.08,0-3.57,1.15-3.9,3.02-.17.98-.23,3.37,3.05,4.42.5.16,1,.25,1.44.32.17.03.35.06.52.09.14.03.27.04.41.03,4.25-.24,8.29,1.25,12.19,2.75-.01.06-.03.11-.04.16-.03.11-.05.22-.07.28-2.18,5.97-5,12.93-9.3,19.36-4.75,7.09-10.6,12.02-17.87,15.07-1.53.64-2.53.73-3.58.31-.87-.35-1.73-.49-2.57-.63-1.05-.18-1.95-.33-2.64-.85-.21-.16-.46-.26-.73-.3-2.04-.31-3.01-1.76-4-4.17-1.06-2.58-1.45-5.34-1.86-8.27l-.03-.25c-.13-.91-.25-1.84-.36-2.75-.19-1.49-.38-3.03-.63-4.55-.63-3.74-1.57-7.65-4.16-10.9-.64-.8-1.65-.87-2.25-.91h-.12c-.55-.05-1.07.18-1.43.62-.23.29-.78,1.25-.51,2.18,1.4,4.84,1.4,9.77,1.4,14.99,0,.61,0,1.22,0,1.83,0,1.95.09,3.65.24,5.19.52,5.16,2.44,9.49,5.68,12.88.01.01.02.02.04.04-6.2,1-12.83,1.47-21.45,1.51-.73,0-.96-.15-1.25-.61-.57-.93-1.35-1.84-2.36-2.76-5.07-4.62-7.77-10.62-8.51-18.88-.24-2.68-.51-5.51-.82-8.68l-.03-.28c-.07-.71-.14-1.51-.39-2.3-.39-1.24-1.49-2.04-2.69-2.04-.2,0-.4.02-.6.07-.74.17-1.25.65-1.59.97-.06.06-.12.12-.18.17-.38.34-.62.81-.7,1.42-.84,6.13-1.56,13.41-.46,20.98.66,4.54,2.04,8.35,4.22,11.6-3.23-.14-6.5-.3-9.67-.45-2.93-.14-5.85-.28-8.78-.41-.75-.03-.8-.13-.89-.3-.69-1.35-1.79-2.14-2.76-2.84-.22-.16-.44-.32-.66-.49l-.51-.4c-1.35-1.04-2.74-2.12-3.98-3.28-2.9-2.7-4.67-5.88-5.43-9.73-.84-4.27-1.2-8.71-1.55-13.01l-.11-1.4c-.11-1.39-.23-2.82-.55-4.24-.3-1.34-1.64-2.28-3.11-2.19-.72.05-2.03.37-2.73,2.05-.22.53-.35,1.14-.39,1.87-.06,1.05-.13,2.11-.19,3.16-.29,4.56-.59,9.27-.23,13.98.45,5.88,2.08,10.74,4.97,14.81-4.37-.68-8.35-1.57-12.14-2.73-2.47-.75-4.86-1.83-7.12-3.21-6.72-4.1-10.62-10.2-11.58-18.13-1.03-8.52-.3-17.72,2.3-28.95,1.09-4.72,2.62-9.46,4.55-14.09,1.24-2.97,2.64-6.45,3.59-10.13.75-2.91,1.06-5.81.93-8.64,0-.1,0-.2,0-.31,0-.66.02-1.77-.8-2.57-.35-.34-.98-.74-1.98-.71-1.11.03-2.44.62-2.47,3.22v.18c-.1,4.14-1.45,8.04-2.89,11.7-3.39-4.4-8.08-6.57-12.3-8.11-5.08-1.85-10.38-2.87-15.51-3.86Z"/>
  <path class="cls-2" d="m223.07,331.29c.57,2.55,1.42,5.27,2.53,8.07,1.57,4.35,3.33,8.27,5.4,12,.18.33.36.67.54,1.03.66,1.29,1.39,2.73,2.69,3.86.23,1.05.85,1.8,1.33,2.39.14.17.26.32.37.47,3.67,5.02,8.16,9.08,13.35,12.07,1.25.78,2.52,1.42,3.75,1.93l.06.02c5.76,2.61,12.28,4.15,19.93,4.72.05,0,.09,0,.14,0,.29,0,.54-.07.74-.16,6.42.58,13.05-.52,20.8-3.46,8.47-3.22,16.38-8.37,24.15-15.75,9.8-9.3,18.15-20.62,26.3-35.62.31-.58.55-1.15.77-1.71l.05-.12c3.76-9.26,1.09-17.65-7.33-23.01-2.92-1.86-6.27-3.26-10.55-4.41-5.74-1.55-12.07-2.45-19.35-2.76-10.09-.43-20.02-.08-29.52,1.05-3.88.46-7.33.94-10.52,1.47,0,0-.02,0-.02,0,0,0-.33.05-.92.16-5.98,1.02-11.27,2.25-16.18,3.75-4.69,1.43-9.26,2.92-13.5,5.3-7.47,3.65-12.27,7.82-14.25,12.4-2.23,3.88-2.83,7.82-1.83,12.06.33,1.41.69,2.84,1.08,4.24Z"/>
  <rect class="cls-1" x="5" y="5" width="539" height="539"/>
</svg>